<?xml version="1.0" encoding="UTF-8"?>
<svg width="24px" height="24px" viewBox="0 0 24 24" version="1.1" xmlns="http://www.w3.org/2000/svg" xmlns:xlink="http://www.w3.org/1999/xlink">
    <!-- Generator: Sketch 48.2 (47327) - http://www.bohemiancoding.com/sketch -->
    <title>Cards_Icon</title>
    <desc>Created with Sketch.</desc>
    <defs></defs>
    <g id="Page-1" stroke="none" stroke-width="1" fill="none" fill-rule="evenodd" opacity="0.6">
        <g id="Cards_Icon" fill="#000000">
            <path d="M19.3262032,4 L3.92513369,4 C2.86631016,4 2,4.86631016 2,5.92513369 L2,17.4759358 C2,18.5347594 2.86631016,19.4010695 3.92513369,19.4010695 L19.3262032,19.4010695 C20.3850267,19.4010695 21.2513369,18.5347594 21.2513369,17.4759358 L21.2513369,5.92513369 C21.2513369,4.86631016 20.3850267,4 19.3262032,4 L19.3262032,4 Z M19.3262032,17.4759358 L3.92513369,17.4759358 L3.92513369,11.7005348 L19.3262032,11.7005348 L19.3262032,17.4759358 L19.3262032,17.4759358 Z M19.3262032,7.85026738 L3.92513369,7.85026738 L3.92513369,5.92513369 L19.3262032,5.92513369 L19.3262032,7.85026738 L19.3262032,7.85026738 Z" id="Shape"></path>
        </g>
    </g>
</svg>