<?xml version="1.0" encoding="UTF-8"?>
<svg width="24px" height="24px" viewBox="0 0 24 24" version="1.1" xmlns="http://www.w3.org/2000/svg" xmlns:xlink="http://www.w3.org/1999/xlink">
    <!-- Generator: Sketch 48.2 (47327) - http://www.bohemiancoding.com/sketch -->
    <title>Reports_Icon</title>
    <desc>Created with Sketch.</desc>
    <defs></defs>
    <g id="Page-1" stroke="none" stroke-width="1" fill="none" fill-rule="evenodd" opacity="0.6">
        <g id="Reports_Icon" fill="#000000">
            <path d="M18.4010695,2.92513369 L14.3582888,2.92513369 C13.973262,1.77005348 12.9144385,1 11.6631016,1 C10.4117647,1 9.35294118,1.77005348 8.96791444,2.92513369 L4.92513369,2.92513369 C3.86631016,2.92513369 3,3.79144385 3,4.85026738 L3,20.2513369 C3,21.3101604 3.86631016,22.1764706 4.92513369,22.1764706 L18.4010695,22.1764706 C19.459893,22.1764706 20.3262032,21.3101604 20.3262032,20.2513369 L20.3262032,4.85026738 C20.3262032,3.79144385 19.459893,2.92513369 18.4010695,2.92513369 L18.4010695,2.92513369 Z M11.6631016,2.92513369 C12.2406417,2.92513369 12.6256684,3.31016043 12.6256684,3.88770053 C12.6256684,4.46524064 12.2406417,4.85026738 11.6631016,4.85026738 C11.0855615,4.85026738 10.7005348,4.46524064 10.7005348,3.88770053 C10.7005348,3.31016043 11.0855615,2.92513369 11.6631016,2.92513369 L11.6631016,2.92513369 Z M18.4010695,20.2513369 L4.92513369,20.2513369 L4.92513369,4.85026738 L6.85026738,4.85026738 L6.85026738,7.73796791 L16.4759358,7.73796791 L16.4759358,4.85026738 L18.4010695,4.85026738 L18.4010695,20.2513369 L18.4010695,20.2513369 Z" id="Shape"></path>
        </g>
    </g>
</svg>