<?xml version="1.0" encoding="UTF-8"?>
<svg width="24px" height="24px" viewBox="0 0 24 24" version="1.1" xmlns="http://www.w3.org/2000/svg" xmlns:xlink="http://www.w3.org/1999/xlink">
    <!-- Generator: Sketch 48.2 (47327) - http://www.bohemiancoding.com/sketch -->
    <title>Settings_Icon</title>
    <desc>Created with Sketch.</desc>
    <defs></defs>
    <g id="Page-1" stroke="none" stroke-width="1" fill="none" fill-rule="evenodd" opacity="0.6">
        <g id="Settings_Icon" fill="#000000">
            <path d="M18.497655,12.5882353 C18.497655,12.2994652 18.5939117,12.0106952 18.5939117,11.6256684 C18.5939117,11.2406417 18.5939117,10.9518717 18.497655,10.6631016 L20.5190454,9.02673797 C20.7115588,8.8342246 20.7115588,8.64171123 20.6153021,8.44919786 L18.6901684,5.0802139 C18.5939117,4.98395722 18.4013983,4.88770053 18.1126283,4.98395722 L15.7062112,5.94652406 C15.2249277,5.56149733 14.6473876,5.27272727 14.0698475,4.98395722 L13.6848208,2.48128342 C13.7810775,2.19251337 13.4923074,2 13.299794,2 L9.44952667,2 C9.2570133,2 8.96824325,2.19251337 8.96824325,2.38502674 L8.58321651,4.98395722 C8.0056764,5.17647059 7.52439298,5.56149733 6.94685287,5.94652406 L4.63669245,4.98395722 C4.34792239,4.88770053 4.15540902,4.98395722 3.96289565,5.17647059 L2.03776196,8.54545455 C1.94150528,8.64171123 2.03776196,8.93048128 2.23027533,9.12299465 L4.25166571,10.6631016 C4.25166571,10.9518717 4.15540902,11.2406417 4.15540902,11.6256684 C4.15540902,12.0106952 4.15540902,12.2994652 4.25166571,12.5882353 L2.23027533,14.2245989 C2.03776196,14.4171123 2.03776196,14.6096257 2.13401865,14.802139 L4.05915234,18.171123 C4.15540902,18.2673797 4.34792239,18.3636364 4.63669245,18.2673797 L7.04310956,17.3048128 C7.52439298,17.6898396 8.10193309,17.9786096 8.67947319,18.2673797 L9.06449993,20.7700535 C9.06449993,20.9625668 9.2570133,21.1550802 9.54578335,21.1550802 L13.3960507,21.1550802 C13.5885641,21.1550802 13.8773342,20.9625668 13.8773342,20.7700535 L14.2623609,18.2673797 C14.839901,17.9786096 15.4174411,17.6898396 15.8987245,17.3048128 L18.3051416,18.2673797 C18.497655,18.3636364 18.7864251,18.2673797 18.8826817,18.0748663 L20.8078154,14.7058824 C20.9040721,14.513369 20.9040721,14.2245989 20.7115588,14.1283422 L18.497655,12.5882353 L18.497655,12.5882353 Z M11.3746604,14.9946524 C9.54578335,14.9946524 8.0056764,13.4545455 8.0056764,11.6256684 C8.0056764,9.79679144 9.54578335,8.25668449 11.3746604,8.25668449 C13.2035374,8.25668449 14.7436443,9.79679144 14.7436443,11.6256684 C14.7436443,13.4545455 13.2035374,14.9946524 11.3746604,14.9946524 L11.3746604,14.9946524 Z" id="Shape"></path>
        </g>
    </g>
</svg>