<svg id="Layer_1" data-name="Layer 1" xmlns="http://www.w3.org/2000/svg" viewBox="0 0 24 24"><defs><style>.cls-1{fill:#666;}</style></defs><title>Artboard 1 copy 12</title><path class="cls-1" d="M20.26,19.75c.64,2.95-2.56,3.59-4,3.2A24.71,24.71,0,0,0,12,22.51,24.78,24.78,0,0,0,7.71,23c-1.41.39-4.61-.26-4-3.2S7.2,16.93,8,13s4-3.72,4-3.72S15.27,9,16,13,19.62,16.8,20.26,19.75ZM15,9c1.74.5,3.65-.87,4.28-3.06S19,1.55,17.25,1,13.6,1.92,13,4.11,13.23,8.48,15,9Zm7.19-.8c-1.67-.68-3.72.47-4.58,2.59s-.21,4.37,1.47,5.05,3.72-.47,4.58-2.59S23.83,8.86,22.16,8.18ZM9,9c1.74-.5,2.63-2.68,2-4.87S8.48.55,6.75,1.05s-2.63,2.68-2,4.87S7.3,9.48,9,9ZM5,15.82c1.67-.68,2.33-2.95,1.47-5.05S3.52,7.5,1.84,8.18-.48,11.13.38,13.23,3.29,16.5,5,15.82Z"/></svg>