<?xml version="1.0" encoding="UTF-8"?>
<svg width="21px" height="20px" viewBox="0 0 21 20" version="1.1" xmlns="http://www.w3.org/2000/svg" xmlns:xlink="http://www.w3.org/1999/xlink">
    <!-- Generator: Sketch 48.2 (47327) - http://www.bohemiancoding.com/sketch -->
    <title>Pic_33</title>
    <desc>Created with Sketch.</desc>
    <defs></defs>
    <g id="Page-1" stroke="none" stroke-width="1" fill="none" fill-rule="evenodd">
        <g id="Pic_33" fill="#009688" fill-rule="nonzero">
            <path d="M19.7798302,9.04948034 L11.1726178,0.440266854 C10.5857318,-0.146755618 9.63426756,-0.146755618 9.04738153,0.440266854 L0.440169099,9.04948034 C0.0103813784,9.47936798 -0.118128071,10.1258848 0.114402139,10.6875702 C0.347044682,11.2492556 0.895007176,11.6154354 1.50278722,11.6154354 L2.66892061,11.6154354 L2.66892061,18.052177 C2.66892061,19.1258848 3.53911156,19.9961657 4.61245753,19.9961657 L15.6075418,19.9961657 C16.6808878,19.9961657 17.5510787,19.1258287 17.5510787,18.052177 L17.5510787,11.6154354 L18.7172121,11.6154354 C19.3249921,11.6154354 19.8730108,11.2491994 20.1055972,10.6875702 C20.3381274,10.1258848 20.2096179,9.47936798 19.7798302,9.04948034 Z M12.3808762,17.1770084 L7.83912311,17.1770084 L7.83912311,14.6161657 C7.83912311,13.3616713 8.85585303,12.3447612 10.1099997,12.3447612 C11.3641463,12.3447612 12.3808762,13.3616152 12.3808762,14.6161657 L12.3808762,17.1770084 Z" id="Shape"></path>
        </g>
    </g>
</svg>