<svg id="Layer_1" data-name="Layer 1" xmlns="http://www.w3.org/2000/svg" viewBox="0 0 24 24"><defs><style>.cls-1{fill:#009688;}</style></defs><title>Artboard 1 copy 4</title><path class="cls-1" d="M3.08,0H20.92A3,3,0,0,1,24,3.08V20.92A3,3,0,0,1,20.92,24H3.08A3,3,0,0,1,0,20.92V3.08A3,3,0,0,1,3.08,0Zm14.4,2.67A1.08,1.08,0,0,0,16.4,3.75V6.33a1.08,1.08,0,0,0,1.08,1.08H20.2a1.08,1.08,0,0,0,1.08-1.08V3.75A1.08,1.08,0,0,0,20.2,2.67Zm3.8,7.48H19.18a7,7,0,0,1,.31,2.06A7.35,7.35,0,0,1,12,19.44a7.35,7.35,0,0,1-7.46-7.23,7,7,0,0,1,.31-2.06H2.67V20.29a1,1,0,0,0,1,1H20.33a1,1,0,0,0,1-1V10.15ZM12,7.28A4.75,4.75,0,0,0,7.2,11.95,4.75,4.75,0,0,0,12,16.62a4.75,4.75,0,0,0,4.82-4.67A4.75,4.75,0,0,0,12,7.28Z"/></svg>