<?xml version="1.0" encoding="UTF-8"?>
<svg width="252px" height="48px" viewBox="0 0 252 48" version="1.1" xmlns="http://www.w3.org/2000/svg" xmlns:xlink="http://www.w3.org/1999/xlink">
    <!-- Generator: Sketch 48.2 (47327) - http://www.bohemiancoding.com/sketch -->
    <title>Group 2</title>
    <desc>Created with Sketch.</desc>
    <defs></defs>
    <g id="Page-1" stroke="none" stroke-width="1" fill="none" fill-rule="evenodd">
        <g id="Group-2" fill="#F57C00">
            <path d="M43.8967716,40.823777 C45.2885335,47.2239395 38.3527488,48.6126522 35.2977423,47.7793489 C32.2427359,46.9460456 26.0114664,46.8072405 26.0114664,46.8072405 C26.0114664,46.8072405 19.7629284,46.9461402 16.707922,47.7793489 C13.6529155,48.61842 6.71137468,47.2238449 8.09738039,40.823777 C9.48338609,34.4237091 15.593399,34.7014138 17.2681559,26.0734676 C18.9371566,17.4455213 26.0173169,18.0010253 26.0173169,18.0010253 C26.0173169,18.0010253 33.0801143,17.4455213 34.7492094,26.0734676 C36.4123597,34.7014138 42.5107659,34.4236145 43.8967716,40.823777 Z M32.4218371,17.4397535 C36.1813587,18.5275958 40.3336197,15.5533092 41.7023569,10.7965876 C43.0709998,6.04572832 41.1363669,1.31217239 37.3768453,0.2243301 C33.6172293,-0.863606748 29.4650627,2.11077439 28.0963254,6.86749602 C26.7276826,11.6183553 28.6623155,16.3519112 32.4218371,17.4397535 Z M48.0027946,15.7096068 C44.3818925,14.2281367 39.9351242,16.7396767 38.0697538,21.3226083 C36.2043833,25.905729 37.6251147,30.8186536 41.2460168,32.2941668 C44.866919,33.7697745 49.3136873,31.2640969 51.1790577,26.6810707 C53.0444281,22.0980446 51.6237912,17.1909823 48.0027946,15.7096068 Z M19.5724092,17.4397535 C23.3319308,16.3518167 25.2665638,11.6183553 23.8979209,6.86749602 C22.529278,2.11663673 18.3712609,-0.857744408 14.6174011,0.23019244 C10.8636356,1.31803473 8.92324653,6.05149611 10.2918894,10.8024499 C11.6606267,15.5533092 15.8128876,18.5275958 19.5724092,17.4397535 Z M10.7538913,32.2941668 C14.3748878,30.8127913 15.7955248,25.8998666 13.9301544,21.3226083 C12.064784,16.7453499 7.61801567,14.2281367 3.99711351,15.7096068 C0.376211351,17.1909823 -1.04442562,22.1039069 0.820944799,26.6810707 C2.68622086,31.2640969 7.13298916,33.7755423 10.7538913,32.2941668 Z" id="Shape" fill-rule="nonzero"></path>
            <path d="M68.14,11.44 C69.5533404,11.2533324 70.959993,11.126667 72.36,11.06 C73.760007,10.993333 74.9533284,10.96 75.94,10.96 C77.7266756,10.96 79.2733268,11.1466648 80.58,11.52 C81.8866732,11.8933352 82.9666624,12.4266632 83.82,13.12 C84.6733376,13.8133368 85.3066646,14.6399952 85.72,15.6 C86.1333354,16.5600048 86.34,17.6133276 86.34,18.76 C86.34,20.7066764 86.0466696,22.3599932 85.46,23.72 C84.8733304,25.0800068 84.046672,26.193329 82.98,27.06 C81.913328,27.926671 80.6400074,28.5533314 79.16,28.94 C77.6799926,29.3266686 76.0600088,29.52 74.3,29.52 L72.62,29.52 L71.18,38 L63.62,38 L68.14,11.44 Z M74.9,24.04 C75.9133384,24.04 76.7599966,23.6200042 77.44,22.78 C78.1200034,21.9399958 78.46,20.6933416 78.46,19.04 C78.46,18.2666628 78.2333356,17.6400024 77.78,17.16 C77.3266644,16.6799976 76.700004,16.44 75.9,16.44 L75.36,16.44 C75.1333322,16.44 74.9400008,16.4533332 74.78,16.48 L73.5,24.04 L74.9,24.04 Z M93.18,30.32 C93.2333336,31.2000044 93.4866644,31.8799976 93.94,32.36 C94.3933356,32.8400024 94.9799964,33.08 95.7,33.08 C96.6066712,33.08 97.3733302,32.8866686 98,32.5 C98.6266698,32.1133314 99.1933308,31.5066708 99.7,30.68 C100.660005,30.9733348 101.426664,31.3599976 102,31.84 C102.573336,32.3200024 102.86,32.9999956 102.86,33.88 C102.86,34.5200032 102.720001,35.073331 102.44,35.54 C102.159999,36.006669 101.820002,36.3999984 101.42,36.72 C100.67333,37.3333364 99.6866728,37.7999984 98.46,38.12 C97.2333272,38.4400016 96.0466724,38.6 94.9,38.6 C93.433326,38.6 92.1533388,38.3866688 91.06,37.96 C89.9666612,37.5333312 89.0600036,36.953337 88.34,36.22 C87.6199964,35.486663 87.0800018,34.620005 86.72,33.62 C86.3599982,32.619995 86.18,31.5333392 86.18,30.36 C86.18,28.7066584 86.413331,27.1400074 86.88,25.66 C87.346669,24.1799926 88.0599952,22.8866722 89.02,21.78 C89.9800048,20.6733278 91.1799928,19.7933366 92.62,19.14 C94.0600072,18.4866634 95.7666568,18.16 97.74,18.16 C99.0466732,18.16 100.126662,18.3333316 100.98,18.68 C101.833338,19.0266684 102.513331,19.466664 103.02,20 C103.526669,20.533336 103.886666,21.1066636 104.1,21.72 C104.313334,22.3333364 104.42,22.9199972 104.42,23.48 C104.42,24.8666736 104.120003,25.9999956 103.52,26.88 C102.919997,27.7600044 102.160005,28.4533308 101.24,28.96 C100.319995,29.4666692 99.293339,29.819999 98.16,30.02 C97.026661,30.220001 95.926672,30.32 94.86,30.32 L93.18,30.32 Z M93.58,26.6 C93.7666676,26.6266668 93.9199994,26.64 94.04,26.64 L94.42,26.64 C94.820002,26.64 95.2333312,26.5933338 95.66,26.5 C96.0866688,26.4066662 96.466665,26.2733342 96.8,26.1 C97.133335,25.9266658 97.4066656,25.6933348 97.62,25.4 C97.8333344,25.1066652 97.94,24.760002 97.94,24.36 C97.94,24.0666652 97.8466676,23.8066678 97.66,23.58 C97.4733324,23.3533322 97.1533356,23.24 96.7,23.24 C95.9266628,23.24 95.2666694,23.5199972 94.72,24.08 C94.1733306,24.6400028 93.7933344,25.4799944 93.58,26.6 Z M108.5,12.8 C108.953336,12.6933328 109.426664,12.6133336 109.92,12.56 C110.413336,12.5066664 110.99333,12.48 111.66,12.48 C112.486671,12.48 113.166664,12.5733324 113.7,12.76 C114.233336,12.9466676 114.653332,13.1999984 114.96,13.52 C115.266668,13.8400016 115.473333,14.199998 115.58,14.6 C115.686667,15.000002 115.74,15.4133312 115.74,15.84 C115.74,15.973334 115.733333,16.0999994 115.72,16.22 C115.706667,16.3400006 115.686667,16.466666 115.66,16.6 L115.26,18.96 L120.94,18.96 L119.98,24.92 L114.26,24.92 L113.38,30.24 C113.273333,30.8533364 113.346665,31.2999986 113.6,31.58 C113.853335,31.8600014 114.206664,32 114.66,32 C115.140002,32 115.566665,31.8466682 115.94,31.54 C116.313335,31.2333318 116.646665,30.8400024 116.94,30.36 C118.086672,30.6800016 118.926664,31.139997 119.46,31.74 C119.993336,32.340003 120.206667,33.1599948 120.1,34.2 C120.02,34.7866696 119.853335,35.2666648 119.6,35.64 C119.346665,36.0133352 119.033335,36.3866648 118.66,36.76 C117.299993,37.9866728 115.460012,38.6 113.14,38.6 C112.046661,38.6 111.033338,38.4800012 110.1,38.24 C109.166662,37.9999988 108.353337,37.6066694 107.66,37.06 C106.966663,36.5133306 106.426669,35.8133376 106.04,34.96 C105.653331,34.1066624 105.46,33.0533396 105.46,31.8 C105.46,31.4266648 105.48,31.0600018 105.52,30.7 C105.56,30.3399982 105.606666,29.9466688 105.66,29.52 L108.5,12.8 Z M131.74,23.32 C132.433337,23.32 133.013331,23.4066658 133.48,23.58 C133.946669,23.7533342 134.319999,23.9799986 134.6,24.26 C134.880001,24.5400014 135.079999,24.8733314 135.2,25.26 C135.320001,25.6466686 135.38,26.0533312 135.38,26.48 C135.38,26.9866692 135.320001,27.4999974 135.2,28.02 C135.079999,28.5400026 134.940001,29.0399976 134.78,29.52 L125.66,29.52 C124.966663,29.52 124.386669,29.4333342 123.92,29.26 C123.453331,29.0866658 123.080001,28.8600014 122.8,28.58 C122.519999,28.2999986 122.320001,27.9666686 122.2,27.58 C122.079999,27.1933314 122.02,26.7866688 122.02,26.36 C122.02,25.8533308 122.079999,25.3400026 122.2,24.82 C122.320001,24.2999974 122.459999,23.8000024 122.62,23.32 L131.74,23.32 Z M141.38,11.24 C141.833336,11.1333328 142.293331,11.0533336 142.76,11 C143.226669,10.9466664 143.79333,10.92 144.46,10.92 C145.286671,10.92 145.973331,11.0133324 146.52,11.2 C147.066669,11.3866676 147.493332,11.6399984 147.8,11.96 C148.106668,12.2800016 148.319999,12.639998 148.44,13.04 C148.560001,13.440002 148.62,13.8533312 148.62,14.28 C148.62,14.413334 148.613333,14.5399994 148.6,14.66 C148.586667,14.7800006 148.566667,14.906666 148.54,15.04 L147.46,21.32 L153.82,21.32 L155.5,11.24 C155.953336,11.1333328 156.413331,11.0533336 156.88,11 C157.346669,10.9466664 157.91333,10.92 158.58,10.92 C159.406671,10.92 160.093331,11.0133324 160.64,11.2 C161.186669,11.3866676 161.613332,11.6399984 161.92,11.96 C162.226668,12.2800016 162.439999,12.639998 162.56,13.04 C162.680001,13.440002 162.74,13.8533312 162.74,14.28 C162.74,14.413334 162.733333,14.5399994 162.72,14.66 C162.706667,14.7800006 162.686667,14.906666 162.66,15.04 L158.78,38 L150.98,38 L152.74,27.56 L146.42,27.56 L144.66,38 L136.86,38 L141.38,11.24 Z M169.94,30.32 C169.993334,31.2000044 170.246664,31.8799976 170.7,32.36 C171.153336,32.8400024 171.739996,33.08 172.46,33.08 C173.366671,33.08 174.13333,32.8866686 174.76,32.5 C175.38667,32.1133314 175.953331,31.5066708 176.46,30.68 C177.420005,30.9733348 178.186664,31.3599976 178.76,31.84 C179.333336,32.3200024 179.62,32.9999956 179.62,33.88 C179.62,34.5200032 179.480001,35.073331 179.2,35.54 C178.919999,36.006669 178.580002,36.3999984 178.18,36.72 C177.43333,37.3333364 176.446673,37.7999984 175.22,38.12 C173.993327,38.4400016 172.806672,38.6 171.66,38.6 C170.193326,38.6 168.913339,38.3866688 167.82,37.96 C166.726661,37.5333312 165.820004,36.953337 165.1,36.22 C164.379996,35.486663 163.840002,34.620005 163.48,33.62 C163.119998,32.619995 162.94,31.5333392 162.94,30.36 C162.94,28.7066584 163.173331,27.1400074 163.64,25.66 C164.106669,24.1799926 164.819995,22.8866722 165.78,21.78 C166.740005,20.6733278 167.939993,19.7933366 169.38,19.14 C170.820007,18.4866634 172.526657,18.16 174.5,18.16 C175.806673,18.16 176.886662,18.3333316 177.74,18.68 C178.593338,19.0266684 179.273331,19.466664 179.78,20 C180.286669,20.533336 180.646666,21.1066636 180.86,21.72 C181.073334,22.3333364 181.18,22.9199972 181.18,23.48 C181.18,24.8666736 180.880003,25.9999956 180.28,26.88 C179.679997,27.7600044 178.920005,28.4533308 178,28.96 C177.079995,29.4666692 176.053339,29.819999 174.92,30.02 C173.786661,30.220001 172.686672,30.32 171.62,30.32 L169.94,30.32 Z M170.34,26.6 C170.526668,26.6266668 170.679999,26.64 170.8,26.64 L171.18,26.64 C171.580002,26.64 171.993331,26.5933338 172.42,26.5 C172.846669,26.4066662 173.226665,26.2733342 173.56,26.1 C173.893335,25.9266658 174.166666,25.6933348 174.38,25.4 C174.593334,25.1066652 174.7,24.760002 174.7,24.36 C174.7,24.0666652 174.606668,23.8066678 174.42,23.58 C174.233332,23.3533322 173.913336,23.24 173.46,23.24 C172.686663,23.24 172.026669,23.5199972 171.48,24.08 C170.933331,24.6400028 170.553334,25.4799944 170.34,26.6 Z M186.1,9.96 C186.553336,9.8533328 187.026664,9.7733336 187.52,9.72 C188.013336,9.6666664 188.59333,9.64 189.26,9.64 C190.086671,9.64 190.766664,9.7333324 191.3,9.92 C191.833336,10.1066676 192.253332,10.3599984 192.56,10.68 C192.866668,11.0000016 193.073333,11.359998 193.18,11.76 C193.286667,12.160002 193.34,12.5733312 193.34,13 C193.34,13.133334 193.333333,13.2599994 193.32,13.38 C193.306667,13.5000006 193.286667,13.626666 193.26,13.76 L189.98,33.24 L189.82,34.36 C189.766666,34.7333352 189.74,35.1066648 189.74,35.48 C189.74,35.8533352 189.753333,36.2133316 189.78,36.56 C189.806667,36.9066684 189.873333,37.2533316 189.98,37.6 C189.526664,37.8133344 188.96667,38.0066658 188.3,38.18 C187.63333,38.3533342 186.873338,38.44 186.02,38.44 C184.499992,38.44 183.433336,38.1666694 182.82,37.62 C182.206664,37.0733306 181.913333,36.2400056 181.94,35.12 L181.94,34.68 C181.94,34.5199992 181.953333,34.373334 181.98,34.24 L186.1,9.96 Z M195.54,18.88 C195.993336,18.7999996 196.453331,18.726667 196.92,18.66 C197.386669,18.593333 197.95333,18.56 198.62,18.56 C200.993345,18.56 202.339998,19.1999936 202.66,20.48 C203.193336,19.8666636 203.839996,19.326669 204.6,18.86 C205.360004,18.393331 206.379994,18.16 207.66,18.16 C208.513338,18.16 209.299996,18.3399982 210.02,18.7 C210.740004,19.0600018 211.359997,19.5666634 211.88,20.22 C212.400003,20.8733366 212.806665,21.6599954 213.1,22.58 C213.393335,23.5000046 213.54,24.5333276 213.54,25.68 C213.54,27.2533412 213.360002,28.806659 213,30.34 C212.639998,31.873341 212.093337,33.2466606 211.36,34.46 C210.626663,35.6733394 209.686672,36.6533296 208.54,37.4 C207.393328,38.1466704 206.020008,38.52 204.42,38.52 C203.406662,38.52 202.573337,38.3666682 201.92,38.06 C201.266663,37.7533318 200.713336,37.3466692 200.26,36.84 L198.58,46.72 L190.82,46.72 L195.54,18.88 Z M201.02,32.24 C201.366668,32.4266676 201.766664,32.52 202.22,32.52 C202.88667,32.52 203.439998,32.286669 203.88,31.82 C204.320002,31.353331 204.666665,30.7933366 204.92,30.14 C205.173335,29.4866634 205.353333,28.8066702 205.46,28.1 C205.566667,27.3933298 205.62,26.8133356 205.62,26.36 C205.62,24.6799916 205.100005,23.84 204.06,23.84 C203.446664,23.84 202.993335,24.039998 202.7,24.44 C202.406665,24.840002 202.22,25.2666644 202.14,25.72 L201.02,32.24 Z M222.14,30.32 C222.193334,31.2000044 222.446664,31.8799976 222.9,32.36 C223.353336,32.8400024 223.939996,33.08 224.66,33.08 C225.566671,33.08 226.33333,32.8866686 226.96,32.5 C227.58667,32.1133314 228.153331,31.5066708 228.66,30.68 C229.620005,30.9733348 230.386664,31.3599976 230.96,31.84 C231.533336,32.3200024 231.82,32.9999956 231.82,33.88 C231.82,34.5200032 231.680001,35.073331 231.4,35.54 C231.119999,36.006669 230.780002,36.3999984 230.38,36.72 C229.63333,37.3333364 228.646673,37.7999984 227.42,38.12 C226.193327,38.4400016 225.006672,38.6 223.86,38.6 C222.393326,38.6 221.113339,38.3866688 220.02,37.96 C218.926661,37.5333312 218.020004,36.953337 217.3,36.22 C216.579996,35.486663 216.040002,34.620005 215.68,33.62 C215.319998,32.619995 215.14,31.5333392 215.14,30.36 C215.14,28.7066584 215.373331,27.1400074 215.84,25.66 C216.306669,24.1799926 217.019995,22.8866722 217.98,21.78 C218.940005,20.6733278 220.139993,19.7933366 221.58,19.14 C223.020007,18.4866634 224.726657,18.16 226.7,18.16 C228.006673,18.16 229.086662,18.3333316 229.94,18.68 C230.793338,19.0266684 231.473331,19.466664 231.98,20 C232.486669,20.533336 232.846666,21.1066636 233.06,21.72 C233.273334,22.3333364 233.38,22.9199972 233.38,23.48 C233.38,24.8666736 233.080003,25.9999956 232.48,26.88 C231.879997,27.7600044 231.120005,28.4533308 230.2,28.96 C229.279995,29.4666692 228.253339,29.819999 227.12,30.02 C225.986661,30.220001 224.886672,30.32 223.82,30.32 L222.14,30.32 Z M222.54,26.6 C222.726668,26.6266668 222.879999,26.64 223,26.64 L223.38,26.64 C223.780002,26.64 224.193331,26.5933338 224.62,26.5 C225.046669,26.4066662 225.426665,26.2733342 225.76,26.1 C226.093335,25.9266658 226.366666,25.6933348 226.58,25.4 C226.793334,25.1066652 226.9,24.760002 226.9,24.36 C226.9,24.0666652 226.806668,23.8066678 226.62,23.58 C226.433332,23.3533322 226.113336,23.24 225.66,23.24 C224.886663,23.24 224.226669,23.5199972 223.68,24.08 C223.133331,24.6400028 222.753334,25.4799944 222.54,26.6 Z M236.78,18.88 C237.233336,18.7733328 237.693331,18.6933336 238.16,18.64 C238.626669,18.5866664 239.19333,18.56 239.86,18.56 C241.060006,18.56 241.99333,18.7399982 242.66,19.1 C243.32667,19.4600018 243.726666,19.9466636 243.86,20.56 C244.393336,19.8666632 245.019996,19.2933356 245.74,18.84 C246.460004,18.3866644 247.406661,18.16 248.58,18.16 C249.593338,18.16 250.386664,18.4199974 250.96,18.94 C251.533336,19.4600026 251.793334,20.2399948 251.74,21.28 C251.686666,22.2666716 251.373336,23.2199954 250.8,24.14 C250.226664,25.0600046 249.300006,25.8933296 248.02,26.64 C247.646665,26.106664 247.280002,25.6933348 246.92,25.4 C246.559998,25.1066652 246.033337,24.96 245.34,24.96 C244.726664,24.96 244.246668,25.1333316 243.9,25.48 C243.553332,25.8266684 243.34,26.2266644 243.26,26.68 L241.34,38 L233.54,38 L236.78,18.88 Z" id="Pet-Helper"></path>
        </g>
    </g>
</svg>