<svg id="Layer_1" data-name="Layer 1" xmlns="http://www.w3.org/2000/svg" viewBox="0 0 24 24"><defs><style>.cls-1{fill:#009688;}</style></defs><title>Artboard 1 copy 2</title><path class="cls-1" d="M7.54,7.95,2,2.4,4.14.25a.85.85,0,0,1,1.2,0L9.66,4.56a.85.85,0,0,1,0,1.21l-.95.94-.88.88A2.42,2.42,0,0,0,7.54,7.95Zm4.56,9c-.91-.78-1.78-1.61-2.62-2.45S7.81,12.81,7,11.9a2.73,2.73,0,0,1-.43-2.71L.9,3.49c-1.32,1.36-1.15,4.74.3,7.7a21.35,21.35,0,0,0,2.27,3.54,31.74,31.74,0,0,0,2.71,3.09,30.23,30.23,0,0,0,3.09,2.72,21.35,21.35,0,0,0,3.54,2.26c3,1.45,6.35,1.61,7.7.28L14.81,17.4A2.74,2.74,0,0,1,12.1,17Zm11.65,1.68-4.32-4.32a.86.86,0,0,0-1.21,0h0l-.95.95-.87.88a2.65,2.65,0,0,1-.35.29L21.59,22l2.15-2.15A.84.84,0,0,0,23.75,18.66Z"/></svg>