<svg id="Layer_1" data-name="Layer 1" xmlns="http://www.w3.org/2000/svg" viewBox="0 0 24 24"><defs><style>.cls-1{fill:#009688;}</style></defs><title>Artboard 1 copy</title><path class="cls-1" d="M20.26,5.22A22.23,22.23,0,0,0,12,3.8,22.23,22.23,0,0,0,3.74,5.22C1.33,6.22,0,7.63,0,9.19v5.62c0,1.55,1.33,3,3.74,4A22.23,22.23,0,0,0,12,20.2a22.23,22.23,0,0,0,8.26-1.43c2.41-1,3.74-2.41,3.74-4V9.19c0-1.55-1.33-3-3.74-4ZM12,10.83A21.66,21.66,0,0,1,19.35,12,21.27,21.27,0,0,1,12,13.17,21.27,21.27,0,0,1,4.65,12,21.66,21.66,0,0,1,12,10.83ZM9.08,18.64c-4.64-.53-7.67-2.25-7.67-3.82v-3a8.92,8.92,0,0,0,2.34,1.36,19.83,19.83,0,0,0,5.55,1.29,3.51,3.51,0,0,0-.22,4.19Zm13.52-3.82c0,1.88-4.35,4-10.59,4a2.11,2.11,0,1,1,0-4.22,22.23,22.23,0,0,0,8.26-1.43,8.92,8.92,0,0,0,2.34-1.36Zm0,0"/><path class="cls-1" d="M12.94,16.69a.94.94,0,1,1-.94-.94.94.94,0,0,1,.94.94Zm0,0"/><path class="cls-1" d="M16.22,16.45a.94.94,0,1,1-.94-.94.94.94,0,0,1,.94.94Zm0,0"/><path class="cls-1" d="M19.5,15.75a.94.94,0,1,1-.94-.94.94.94,0,0,1,.94.94Zm0,0"/></svg>