<svg id="Layer_1" data-name="Layer 1" xmlns="http://www.w3.org/2000/svg" viewBox="0 0 24 24"><defs><style>.cls-1{fill:#009688;}</style></defs><title>Artboard 1</title><path class="cls-1" d="M23.59,2.48H.41A.41.41,0,0,0,0,2.9V21.1a.41.41,0,0,0,.41.41H23.59A.41.41,0,0,0,24,21.1V2.9A.41.41,0,0,0,23.59,2.48ZM4.14,20.69H.83V17H4.14Zm0-4.55H.83V12.41H4.14Zm0-4.55H.83V7.86H4.14ZM4.14,7H.83V3.31H4.14Zm11,5.31-4.55,2.9a.41.41,0,0,1-.64-.35V9.1a.41.41,0,0,1,.64-.35l4.55,2.9a.41.41,0,0,1,0,.7Zm8.05,8.34H19.86V17h3.31Zm0-4.55H19.86V12.41h3.31Zm0-4.55H19.86V7.86h3.31Zm0-4.55H19.86V3.31h3.31Z"/></svg>